<svg xmlns="http://www.w3.org/2000/svg" viewBox="0 0 31.34 31.34"><defs><style>.cls-1{fill:#c7d8ff;}.cls-2{fill:#a6bbec;}</style></defs><title>头像</title><g id="图层_2" data-name="图层 2"><g id="头像_1_图像" data-name="头像 (1) 图像"><path class="cls-1" d="M0,15.67A15.67,15.67,0,1,0,15.67,0,15.68,15.68,0,0,0,0,15.67Z"/><path class="cls-2" d="M27.16,26.26c-.41-2.2-4.28-4.3-7.74-5.45-.17,0-1.23-.53-.57-2.53h0a11.13,11.13,0,0,0,3-7.43c0-4.31-2.87-6.57-6.21-6.57S9.48,6.54,9.48,10.85a11.07,11.07,0,0,0,3,7.44c.67,1.77-.54,2.43-.79,2.52C8.43,22,4.6,24.12,4.18,26.26A15.65,15.65,0,1,1,31.34,15.65a15.54,15.54,0,0,1-4.18,10.61"/></g></g></svg>