<svg xmlns="http://www.w3.org/2000/svg" viewBox="0 0 106 106"><defs><style>.cls-1{fill:#dfe1ed;}.cls-2{fill:#f5f6fd;}</style></defs><title>资源 1</title><g id="图层_2" data-name="图层 2"><g id="图层_0_图像" data-name="图层 0 图像"><rect class="cls-1" width="106" height="106"/><path class="cls-2" d="M13.25,105.77a12.51,12.51,0,0,1,5-10c5.33-4,15.17-8.5,19.17-9.67s5.84-3,5.82-6.48c0-2.55-1.53-4.12-3.49-6.19s-8.5-10.33-8.33-19.16,1.83-19.34,9.5-23.34,18.5-5,27,1.84,7.66,21.66,5.5,27.5-4.27,11-6.77,12.79-3.32,4-3.19,7.06c.11,2.67,1.07,4.21,3.74,5.21s10.72,3.44,16,7.27,9.67,7.54,9.5,13C82.08,105.93,13.25,105.77,13.25,105.77Z"/></g></g></svg>