<svg xmlns="http://www.w3.org/2000/svg" viewBox="0 0 159.08 43.61"><defs><style>.cls-1,.cls-2,.cls-3{fill:#818181;}.cls-2{font-size:14.06px;font-family:Montserrat-Regular, Montserrat;}.cls-3{fill-rule:evenodd;}</style></defs><title>LOGO</title><g id="图层_2" data-name="图层 2"><g id="图层_0_矩形_14_矩形_23_矩形_23_拷贝_矩形_23_拷贝_2_选取颜色_9_选取颜色_10_地址栏_产品_解决方案_轮播_企业联盟_导航栏_多场景解决方案_中琛云链-LOGO-1_黑白_1_椭圆_6_椭圆_6_拷贝_7_椭圆_6_拷贝_8_椭圆_6_拷贝_9_x2B" data-name="图层 0 + 矩形 14 + 矩形 23 + 矩形 23 拷贝 + 矩形 23 拷贝 2 + 选取颜色 9 + 选取颜色 10 + 地址栏 + 产品&amp;解决方案 + 轮播 + 企业联盟 + 导航栏 + 多场景解决方案 + 中琛云链-LOGO-1 + 黑白 1 + 椭圆 6 + 椭圆 6 拷贝 7 + 椭圆 6 拷贝 8 + 椭圆 6 拷贝 9  x2B"><path class="cls-1" d="M144.37,5.51v1.8h3.3V5.51Zm-.44,2V5.08h4.17V7.75h-4.17Zm.35,15.34v1.75l.43-.05h0a2.2,2.2,0,0,0,.49-.12,6.17,6.17,0,0,0,.66-.35c.24-.15.51-.34.78-.55l.14-.12.14.13a3.24,3.24,0,0,0,1.15.8,3.11,3.11,0,0,0,1.3.26h8.55V22.92h-3.35V19.43H158V17.71h-3.44v-3H158v-1.7h-3.44V11h-1.7v2.05H151.8a1.18,1.18,0,0,1-.59-.12h0a.5.5,0,0,1-.27-.47,1.27,1.27,0,0,1,.07-.4c.05-.19.12-.42.2-.69h0l.86-3.06,0-.16H158V6.45h-5.39l.09-.28.28-.83h-1.78l-.33,1,0,.14H149V8.16h1.37l-.08.27-1.11,4v0a.8.8,0,0,0-.07.24c0,.07,0,.16,0,.25,0,1.21.73,1.82,2.21,1.82h1.53v3h-3.65v1.72h3.65v3.49h-3.58a1.58,1.58,0,0,1-.63-.13h0a1.82,1.82,0,0,1-.56-.4h0a1.72,1.72,0,0,1-.4-.69,3.33,3.33,0,0,1-.12-.95v-7.9a2.28,2.28,0,0,0-.64-1.8,2.73,2.73,0,0,0-1.95-.59h-.71v1.78h.54a1,1,0,0,1,.43.11,1.38,1.38,0,0,1,.37.24l0,0v0a3,3,0,0,1,.16.4h0a1.5,1.5,0,0,1,.05.37v7.72a1.73,1.73,0,0,1-.45,1.2,2.19,2.19,0,0,1-1.13.55Zm-.43,2V22.53l.19,0A1.88,1.88,0,0,0,145.1,22a1.15,1.15,0,0,0,.33-.88V13.41a.61.61,0,0,0,0-.26h0a1.3,1.3,0,0,0-.1-.27.91.91,0,0,0-.21-.15,1.19,1.19,0,0,0-.26-.05h-1V10H145a3.12,3.12,0,0,1,2.24.71,2.69,2.69,0,0,1,.79,2.12v7.9a2.86,2.86,0,0,0,.1.83,1.08,1.08,0,0,0,.3.5h0a1.39,1.39,0,0,0,.41.31h0a1.08,1.08,0,0,0,.46.09h3.14V19.86h-3.65V17.28h3.65V15.19h-1.09c-1.76,0-2.65-.74-2.65-2.25a1.75,1.75,0,0,1,0-.32,2,2,0,0,1,.07-.31l1-3.71h-1.23V6h1.93l.31-1,.05-.14h2.69l-.1.28-.28.83h5.23V8.6h-6l-.8,2.9h0l-.21.66a2.47,2.47,0,0,0,0,.3.12.12,0,0,0,0,.09h0a.75.75,0,0,0,.38.06h.63v-2H155v2h3.44v2.57H155v2.09h3.44v2.58H155v2.62h3.36v2.59h-9a3.91,3.91,0,0,1-1.48-.3,4.05,4.05,0,0,1-1.14-.76l-.66.47a6.48,6.48,0,0,1-.73.38h0a2.55,2.55,0,0,1-.59.15h0a3.73,3.73,0,0,1-.7.06h-.22ZM136.91,8.72v1.74a3.78,3.78,0,0,0,.77-.2,3.43,3.43,0,0,0,.85-.48h0v0A1.35,1.35,0,0,0,139,9.4a4.72,4.72,0,0,0,.44-.66l.07-.12H143V6.92h-3l.07-.27.31-1.31h-1.81l-.08.38-.14.57h0c-.09.35-.17.64-.24.89s-.16.46-.23.62h0a1.65,1.65,0,0,1-.43.63h0a1.59,1.59,0,0,1-.49.29Zm-.43,2V8.39l.17,0a1.45,1.45,0,0,0,.47-.26h0a1.49,1.49,0,0,0,.31-.46h0c.07-.15.12-.34.21-.59s.16-.53.24-.86h0l.16-.58c.05-.26.11-.46.12-.55l.05-.16h2.68l-.07.26-.29,1.32h2.92V9.05h-3.72c-.16.24-.3.45-.44.62a1.94,1.94,0,0,1-.5.46,3.61,3.61,0,0,1-1,.53,3.68,3.68,0,0,1-1.11.26l-.24,0Zm.43,5.52V18h2.16v4.6a2.6,2.6,0,0,0,.14.89,1.54,1.54,0,0,0,.43.62h0a1.43,1.43,0,0,0,.57.38,2.54,2.54,0,0,0,.77.12h1.82V22.92h-1a1.52,1.52,0,0,1-.42-.06,1.38,1.38,0,0,1-.36-.15l0,0v0a.73.73,0,0,1-.21-.38,2.47,2.47,0,0,1,0-.52V18H143v-1.8h-2.24v-3H143v-1.7h-6.1v1.7h2.16v3h-2.16Zm-.43,2V15.78h2.15V13.61h-2.15V11.05h7v2.56H141.2v2.17h2.25v2.68H141.2v3.31a2.3,2.3,0,0,0,0,.42.3.3,0,0,0,.09.17.93.93,0,0,0,.2.09,1,1,0,0,0,.3,0h1.42v2.59H141a2.7,2.7,0,0,1-.93-.16,2,2,0,0,1-.73-.47,1.94,1.94,0,0,1-.53-.78,2.55,2.55,0,0,1-.18-1V18.46h-2.15ZM112.16,5.34V7h20.27V5.34Zm-.43,1.92V4.9h21.13V7.47H111.73Zm0,4.39v1.72h2.49l-.07.26-1.86,7.27h0c0,.21-.11.42-.14.59a4.47,4.47,0,0,0,0,.47,2.48,2.48,0,0,0,.25,1.13h0a2.13,2.13,0,0,0,.78.83h0a3.12,3.12,0,0,0,1,.47,4.15,4.15,0,0,0,1.15.16h13.9a7.75,7.75,0,0,0,1.36-.13,2.81,2.81,0,0,0,.94-.31,2.87,2.87,0,0,0,.78-.83,2,2,0,0,0,.24-.94,5.45,5.45,0,0,0,0-.78c0-.26-.07-.55-.12-.85l-1.09-4.39h-1.78L130.6,21a1.25,1.25,0,0,1,.09.25,1.42,1.42,0,0,1,0,.29,1.46,1.46,0,0,1-.19.75,1.33,1.33,0,0,1-.6.48l0,0H115.4l-.33,0h0l-.39-.07,0,0-.05,0a1.4,1.4,0,0,1-.4-.52,1.67,1.67,0,0,1-.14-.67,1.88,1.88,0,0,1,0-.33h0a3,3,0,0,1,.08-.39h0L116,13.53l0-.16h16.73V11.65Zm-.43,1.93V11.22h21.88V13.8H116.4l-1.82,7h0a2.83,2.83,0,0,0-.07.33h0a1.5,1.5,0,0,0,.07.76,1.52,1.52,0,0,0,.26.35l.28.05h0l.28,0h14.4a.86.86,0,0,0,.35-.3.93.93,0,0,0,.12-.52,1.48,1.48,0,0,0,0-.21.57.57,0,0,0-.06-.15v0h0L129,16.15l-.07-.26h2.67l0,.15,1.13,4.57h0c.07.32.1.61.14.91a7.49,7.49,0,0,1,0,.81,2.39,2.39,0,0,1-.31,1.15,3.42,3.42,0,0,1-.91,1v0h0a3.66,3.66,0,0,1-1.09.38,8.59,8.59,0,0,1-1.43.12h-13.9a5.19,5.19,0,0,1-1.27-.17,3.94,3.94,0,0,1-1.07-.52,2.81,2.81,0,0,1-.93-1h0a3,3,0,0,1-.29-1.34,3.61,3.61,0,0,1,0-.54,5.71,5.71,0,0,1,.14-.64h0l1.79-7h-2.36Zm-5.53,4.6h-1.7l.34,3.21h0a4,4,0,0,0,.44,1.47,3.14,3.14,0,0,0,1,1.06h0a3.87,3.87,0,0,0,1,.54,3.61,3.61,0,0,0,.87.16v-1.7a.75.75,0,0,1-.21,0,1.14,1.14,0,0,1-.31-.09h0a1.78,1.78,0,0,1-.58-.45h0a2.82,2.82,0,0,1-.38-.69h0a5.22,5.22,0,0,1-.17-.89c0-.36-.09-.83-.12-1.39,0-.17-.06-.36-.09-.59s0-.4-.07-.62Zm-1.95-.44h2.33l0,.19a7.85,7.85,0,0,0,.08.82c0,.23.06.42.09.57v0h0c0,.56.07,1,.12,1.39a6.5,6.5,0,0,0,.16.8h0a2.2,2.2,0,0,0,.31.55h0a1.57,1.57,0,0,0,.42.35h0a.41.41,0,0,0,.19,0,1.89,1.89,0,0,0,.37,0h.2v2.59H108a4.23,4.23,0,0,1-2.37-.78h0a3.62,3.62,0,0,1-1.09-1.22,4.43,4.43,0,0,1-.49-1.65h0L103.65,18l0-.25Zm.79-8.59h-2c.14.33.27.65.39.92a4.53,4.53,0,0,0,.52.87l0,0h0a4.22,4.22,0,0,0,.83,1,4.44,4.44,0,0,0,1.11.67h0c.28.12.61.23,1,.35s.72.17,1.13.24V11.46a4.2,4.2,0,0,1-.94-.21,3.84,3.84,0,0,1-.93-.46h0a3.58,3.58,0,0,1-.7-.75,4.32,4.32,0,0,1-.43-.89Zm-2.28-.43H105l0,.14a4.12,4.12,0,0,0,.46.94,2.59,2.59,0,0,0,.59.64h0a2.73,2.73,0,0,0,.8.4,5.17,5.17,0,0,0,1,.21h.21v2.69l-.26-.05c-.53-.09-1-.19-1.41-.29s-.77-.25-1.06-.37a4.8,4.8,0,0,1-1.22-.76,4.21,4.21,0,0,1-.94-1.1,5.08,5.08,0,0,1-.54-.92,11.41,11.41,0,0,1-.5-1.26l-.09-.28Zm-8.64,2.72v1.72a8,8,0,0,0,.82-.12,3.36,3.36,0,0,0,.75-.21h0a4.64,4.64,0,0,0,1.43-.75,4.71,4.71,0,0,0,1.06-1.2h0a9.62,9.62,0,0,0,.82-1.72h-2a3.25,3.25,0,0,1-.36.8,3.28,3.28,0,0,1-.66.73,2.5,2.5,0,0,1-.86.5,5.09,5.09,0,0,1-1,.26Zm-.43,2V11.06h.19a7.08,7.08,0,0,0,1.13-.26,2.41,2.41,0,0,0,.69-.42l0,0,0,0a2,2,0,0,0,.57-.6,3.27,3.27,0,0,0,.37-.85l0-.16h2.88l-.1.3a12.3,12.3,0,0,1-.94,2.08h0A5.09,5.09,0,0,1,97,12.4a4.81,4.81,0,0,1-1.55.83,4.37,4.37,0,0,1-.81.24,8.44,8.44,0,0,1-1.1.14l-.24,0Zm.43-6.23-.08,1.35h1.79V8a2.42,2.42,0,0,1,0-.42.6.6,0,0,1,.12-.29h0A.89.89,0,0,1,96,7.09a2.17,2.17,0,0,1,.53,0h8.2a1.71,1.71,0,0,1,.5,0,.52.52,0,0,1,.3.19.51.51,0,0,1,.19.24,1,1,0,0,1,.07.38v.63h1.79V7.35A1.86,1.86,0,0,0,107,5.84a2.72,2.72,0,0,0-1.8-.5H95.76a2.2,2.2,0,0,0-1.53.45,1.75,1.75,0,0,0-.49,1.37Zm-.52,1.56.09-1.58h0a2.2,2.2,0,0,1,.62-1.69,2.64,2.64,0,0,1,1.83-.57h9.42a3.23,3.23,0,0,1,2.1.61A2.26,2.26,0,0,1,108,7.35V9h-2.66V7.9a.69.69,0,0,0,0-.22,0,0,0,0,0,0,0l-.07,0,0-.07a.14.14,0,0,0-.07,0,1.69,1.69,0,0,0-.38,0h-8.2a2.12,2.12,0,0,0-.42,0,.62.62,0,0,0-.18.08v0s0,0,0,0,0,.19,0,.35V9H93.2ZM93.74,15v1.7h6.07v7.83h1.79V16.72h6.06V15H101.6V12.87H99.81V15H93.74Zm-.43,1.91V14.59h6.06V12.43H102v2.16h6.07v2.56H102V25H99.37V17.15H93.31Zm0,6v1.72a4.13,4.13,0,0,0,1.15-.3,3.43,3.43,0,0,0,1.09-.75,2.86,2.86,0,0,0,.72-1.12,6.65,6.65,0,0,0,.43-1.72l.26-2.55H95.11c-.08.92-.15,1.63-.2,2.13s-.11.9-.14,1a1.94,1.94,0,0,1-.25.77,1.16,1.16,0,0,1-.5.48,1.21,1.21,0,0,1-.36.19l-.39.11Zm-.43,1.94V22.52l.19,0a4.74,4.74,0,0,0,.49-.11.39.39,0,0,0,.22-.12h0l0,0a.78.78,0,0,0,.37-.35,1.58,1.58,0,0,0,.17-.61h0a6.37,6.37,0,0,0,.14-1c.07-.57.14-1.34.23-2.33l0-.19h2.66l0,.25-.27,2.79h0a8.18,8.18,0,0,1-.46,1.82,4,4,0,0,1-.81,1.29,3.91,3.91,0,0,1-1.24.83,5,5,0,0,1-1.53.35h-.22Zm-6.28-2.57V24H92.2v-1.7H90.14V15H92.2v-1.7H90.14V7.51H92.2V5.8H86.56V7.51h1.86v5.83H86.56V15h1.86v7.23H86.56Zm-.43,1.93V21.84H88V15.47H86.13V12.9H88v-5H86.13V5.37h6.5V7.94h-2v5h2v2.57h-2v6.37h2v2.57h-6.5Zm-7.3-3.32H73V9.08H79a5,5,0,0,1,.82.16,2,2,0,0,1,.59.26h0a1.16,1.16,0,0,1,.37.57,3.82,3.82,0,0,1,.1.91v8.19a1.56,1.56,0,0,1-.52,1.28,2.31,2.31,0,0,1-1.48.43Zm-5.37-.43h5.37a1.89,1.89,0,0,0,1.2-.33,1.19,1.19,0,0,0,.36-.95V11a3.28,3.28,0,0,0-.08-.78.7.7,0,0,0-.21-.35h0a1.34,1.34,0,0,0-.43-.19,3.59,3.59,0,0,0-.75-.14H73.46ZM71.22,9.31V20.88H65a1.76,1.76,0,0,1-1-.24,1.42,1.42,0,0,1-.56-.74V10.79a3.58,3.58,0,0,1,0-.61,2.19,2.19,0,0,1,.16-.51h0l0,0a1.33,1.33,0,0,1,.55-.42A2,2,0,0,1,65,9.08h6.19Zm-.44,11.14V9.52H65a1.32,1.32,0,0,0-.55.1.72.72,0,0,0-.37.26,1.79,1.79,0,0,0-.12.37,4.12,4.12,0,0,0,0,.54v9a1,1,0,0,0,.37.49,1.43,1.43,0,0,0,.71.17Zm.44-15.11v2H65.14a3.68,3.68,0,0,0-1.45.25,3.1,3.1,0,0,0-1.11.71v0a2.15,2.15,0,0,0-.64,1h0a4,4,0,0,0-.23,1.46v8.29A4.69,4.69,0,0,0,62.06,21a2.44,2.44,0,0,0,1,1.14h0a4,4,0,0,0,1,.33,8.36,8.36,0,0,0,1.42.11h5.72v2H73v-2H79.2a3.79,3.79,0,0,0,1.61-.32,2.63,2.63,0,0,0,1.11-.9h0a2.66,2.66,0,0,0,.46-.94h0a4.73,4.73,0,0,0,.15-1.26V10.42A3.46,3.46,0,0,0,82.25,9a2.62,2.62,0,0,0-.85-1,2.85,2.85,0,0,0-1.06-.45,6.72,6.72,0,0,0-1.51-.16H73v-2ZM70.78,7v-2h2.68V7h5.37a6.61,6.61,0,0,1,1.62.17,3.34,3.34,0,0,1,1.21.52h0a3,3,0,0,1,1,1.2A3.66,3.66,0,0,1,83,10.42v8.75a4.76,4.76,0,0,1-.18,1.38h0a3.29,3.29,0,0,1-.52,1.08,3.13,3.13,0,0,1-1.27,1,4.38,4.38,0,0,1-1.8.35H73.46v2.05H70.78V23H65.5A8.4,8.4,0,0,1,64,22.9a4,4,0,0,1-1.11-.37h0a2.87,2.87,0,0,1-1.2-1.33,4.86,4.86,0,0,1-.4-2.12V10.79a5.08,5.08,0,0,1,.24-1.6h0A2.85,2.85,0,0,1,62.29,8a3.57,3.57,0,0,1,1.25-.82A4.71,4.71,0,0,1,65.14,7Zm73.38.59V5.3h3.73V7.54Zm-.09,17.3V22.71c1-.19,1.58-.71,1.58-1.58V13.41a1.52,1.52,0,0,0-.19-.66.84.84,0,0,0-.64-.28h-.75V10.23H145c1.88,0,2.8.87,2.8,2.62v7.9a2,2,0,0,0,.47,1.49,1.45,1.45,0,0,0,1,.47h3.35V19.64H149V17.5h3.63V15h-1.3c-1.62,0-2.42-.69-2.42-2a1.53,1.53,0,0,1,.09-.56l1.11-4h-1.3V6.24h1.87l.37-1.13h2.24l-.38,1.13h5.32V8.37h-6l-.85,3.07a7,7,0,0,0-.28,1c0,.24.23.38.66.38h.84V10.79h2.14v2.06h3.46V15h-3.46V17.5h3.46v2.14h-3.46v3.07h3.37v2.13h-8.78a3.53,3.53,0,0,1-2.6-1.11,8.31,8.31,0,0,1-1.48.94,3.59,3.59,0,0,1-1.22.17ZM136.7,10.7V8.56a1.42,1.42,0,0,0,.94-.83,13.24,13.24,0,0,0,.45-1.49c.14-.5.23-.87.28-1.13h2.24l-.36,1.58h3V8.84h-3.63a2.85,2.85,0,0,1-.94,1.11,3.6,3.6,0,0,1-2,.75Zm0,7.55V16h2.14v-2.6H136.7V11.25h6.52v2.16H141V16h2.22v2.24H141v3.52a1.13,1.13,0,0,0,.17.75,1.16,1.16,0,0,0,.66.19h1.22v2.13H141a2,2,0,0,1-1.5-.55,2.08,2.08,0,0,1-.66-1.67V18.25Zm-24.76-11V5.11h20.7V7.26Zm-.37,6.32V11.44H133v2.14H116.23l-1.86,7.17a2.46,2.46,0,0,0-.1.66,1.2,1.2,0,0,0,.47,1,2.41,2.41,0,0,0,.66.09h14.44a1,1,0,0,0,.66-1,1,1,0,0,0-.11-.47l-1.2-4.92h2.23l1.13,4.56a9,9,0,0,1,.19,1.68,2.43,2.43,0,0,1-1.13,1.95,5.1,5.1,0,0,1-2.42.46h-13.9a3.85,3.85,0,0,1-2.22-.64A2.43,2.43,0,0,1,111.94,22a4.29,4.29,0,0,1,.19-1.11L114,13.58ZM103.87,18H106c.07.63.12,1.1.19,1.41a11.58,11.58,0,0,0,.28,2.24,1.88,1.88,0,0,0,.83,1,2,2,0,0,0,.67.09v2.13a3.76,3.76,0,0,1-2.25-.73,3.59,3.59,0,0,1-1.49-2.7Zm-1.49-9h2.41a3.55,3.55,0,0,0,1.13,1.68,3.56,3.56,0,0,0,2,.64v2.24a11.71,11.71,0,0,1-2.41-.64,4.55,4.55,0,0,1-2.06-1.77,8,8,0,0,1-1-2.15Zm-8.85,4.48V11.25a3.32,3.32,0,0,0,2-.74,2.89,2.89,0,0,0,1-1.58h2.43A10.59,10.59,0,0,1,98,11a4.73,4.73,0,0,1-2.61,2,6.15,6.15,0,0,1-1.86.39Zm-.1-4.66.1-1.59c0-1.36.73-2,2.23-2h9.42c1.74,0,2.6.75,2.6,2.24v1.4h-2.24V7.9c0-.24-.05-.39-.17-.46s-.28-.18-.66-.18h-8.2a1.07,1.07,0,0,0-.75.18c-.07.07-.09.26-.09.57v.74Zm.1,8.18V14.79h6V12.66h2.24v2.13h6.05v2.14h-6.05v7.82H99.58V16.93Zm-.47,7.91V22.71a1.59,1.59,0,0,0,.84-.28,1.3,1.3,0,0,0,.64-1.11c.07-.26.19-1.37.38-3.37h2.25l-.3,2.8a4.93,4.93,0,0,1-1.2,3,3.83,3.83,0,0,1-2.61,1.11Zm-6.72-.64V22.05h1.88V15.26H86.34V13.13h1.88V7.73H86.34V5.58H92.4V7.73H90.35v5.4H92.4v2.13H90.35v6.79H92.4V24.2ZM73.23,20.66h5.6c1.18,0,1.77-.49,1.77-1.49V11a1.71,1.71,0,0,0-.36-1.31,2.68,2.68,0,0,0-1.32-.36H73.23Zm-2.22,0V9.31H65a1.39,1.39,0,0,0-1.11.45,2.43,2.43,0,0,0-.19,1v9a1.22,1.22,0,0,0,1.3.83Zm0-13.5v-2h2.22V7.16h5.6a4.67,4.67,0,0,1,2.71.66,3.11,3.11,0,0,1,1.2,2.6v8.75a3.68,3.68,0,0,1-.64,2.32,3.32,3.32,0,0,1-2.9,1.3h-6v2.05H71V22.79H65.5A5.43,5.43,0,0,1,63,22.34a3.43,3.43,0,0,1-1.49-3.26V10.79a3.33,3.33,0,0,1,.94-2.61,3.68,3.68,0,0,1,2.71-1Z"/><text class="cls-2" transform="translate(61.75 40.1)">Z</text><text class="cls-2" transform="translate(72.08 40.1)">C</text><text class="cls-2" transform="translate(83.34 40.1)">B</text><text class="cls-2" transform="translate(93.66 40.1)">a</text><text class="cls-2" transform="translate(103.05 40.1)">a</text><text class="cls-2" transform="translate(111.96 40.1)">S</text><text class="cls-2" transform="translate(121.35 40.1)">.</text><text class="cls-2" transform="translate(126.04 40.1)">c</text><text class="cls-2" transform="translate(134.95 40.1)">o</text><text class="cls-2" transform="translate(144.8 40.1)">m</text><polygon class="cls-1" points="25.13 27.27 15.5 27.27 15.5 17.67 25.13 17.67 25.13 12.94 10.78 12.94 10.78 32.01 29.86 32.01 29.86 17.67 25.13 17.67 25.13 27.27"/><path class="cls-1" d="M0,8.63V36.21a6.55,6.55,0,0,0,6.55,6.54H34.17a6.57,6.57,0,0,0,6.57-6.54V12.94H29.86V2.09H6.55A6.55,6.55,0,0,0,0,8.63Zm25.13-1.7h0v6h4.73v4.73h6V36.21a1.73,1.73,0,0,1-1.72,1.72H6.55a1.72,1.72,0,0,1-1.7-1.72V8.63a1.7,1.7,0,0,1,1.7-1.7Z"/><path class="cls-3" d="M41.8,1.64a5.61,5.61,0,1,1-7.93,0,5.59,5.59,0,0,1,7.93,0ZM37.89,1a10.89,10.89,0,0,0,4.53,4.67,11.51,11.51,0,0,0-4.66,4.56,10.84,10.84,0,0,0-4.51-4.67A10.5,10.5,0,0,0,37.89,1Z"/></g></g></svg>