<svg xmlns="http://www.w3.org/2000/svg" viewBox="0 0 11.4 13.59"><defs><style>.cls-1{fill:#e6e6e6;}</style></defs><title>资源 1</title><g id="图层_2" data-name="图层 2"><g id="图层_1-2" data-name="图层 1"><path class="cls-1" d="M1.21,4.85h9A1.22,1.22,0,0,1,11.4,6.07h0v6.31a1.21,1.21,0,0,1-1.21,1.21h-9A1.21,1.21,0,0,1,0,12.38H0V6.07A1.22,1.22,0,0,1,1.21,4.85Zm4.13,5v1.31a.48.48,0,0,0,.48.49.49.49,0,0,0,.49-.49V9.85a1.22,1.22,0,1,0-1,0Z"/><path class="cls-1" d="M8,4.85V3.76a2.31,2.31,0,0,0-4.61,0V4.85H1.94V3.76a3.76,3.76,0,0,1,7.52,0V4.85Z"/></g></g></svg>